<svg xmlns="http://www.w3.org/2000/svg" width="284" height="220" fill="none"><g clip-path="url(#a)"><path fill="#113441" d="M251.532 200.4c3.952 0 6.092 2.936 6.092 6.568v6.892h-2.648v-6.464c0-2.376-1.172-4.46-3.632-4.46-2.376 0-3.576 2-3.576 4.408v6.516h-2.644v-6.52c0-2.4-1.2-4.404-3.636-4.404-2.456 0-3.552 2.08-3.552 4.46v6.464h-2.64v-6.864c0-3.66 2.08-6.6 6.008-6.6 2.616 0 4.512 1.336 5.18 3.368.72-2.032 2.564-3.364 5.048-3.364Zm-25.54 11.216c2.428 0 3.764-2.112 3.764-4.54v-6.304h2.644v6.624c0 3.792-2.296 6.784-6.408 6.784-4.06 0-6.36-3.02-6.36-6.812v-6.596h2.644v6.332c0 2.4 1.312 4.512 3.716 4.512Zm-13.816 2.536c-2.432 0-4.3-.96-5.32-2.908l2.032-1.12c.668 1.304 1.736 1.788 3.18 1.788 1.496 0 2.644-.616 2.644-1.764 0-2.752-7.504-.668-7.504-5.664 0-2.296 2.028-3.98 4.888-3.98 2.428 0 4.084 1.12 4.912 2.644l-2.028 1.152c-.56-1.152-1.628-1.552-2.832-1.552-1.228 0-2.296.64-2.296 1.68 0 2.676 7.504.724 7.504 5.664 0 2.484-2.4 4.06-5.18 4.06Zm-18.156 5.716h-2.648v-12.58c0-3.9 3.02-6.84 6.972-6.84a6.84 6.84 0 0 1 6.944 6.84c0 3.956-2.856 6.892-6.84 6.892-1.76 0-3.36-.776-4.432-1.948v7.64l.004-.004Zm4.324-8.172c2.432 0 4.3-2 4.3-4.38 0-2.404-1.868-4.352-4.3-4.352-2.456 0-4.324 1.948-4.324 4.352 0 2.376 1.868 4.38 4.324 4.38Zm-13.12-10.924h2.64v13.088h-2.64v-13.088Zm35.668-11.944c-20.204 0-35.616-15.54-35.616-34.452 0-18.776 15.412-34.32 35.616-34.32 20.2 0 35.616 15.544 35.616 34.32 0 18.912-15.412 34.452-35.616 34.452Zm0-21.888c7.38 0 12.304-5.7 12.304-12.432 0-6.864-4.92-12.564-12.304-12.564s-12.304 5.7-12.304 12.56c0 6.736 4.92 12.436 12.304 12.436Zm-79.636 51.676c-16.06 0-27.72-7.12-33.676-19.816l19.3-10.36c2.072 4.4 5.96 8.936 13.988 8.936 8.416 0 13.988-5.312 14.636-14.636-3.112 2.72-8.032 4.792-15.412 4.792-18.004 0-32.512-13.856-32.512-33.284 0-18.78 15.416-34.06 35.62-34.06 20.72 0 35.616 14.376 35.616 34.188v25.644c0 23.312-16.192 38.596-37.56 38.596Zm1.552-52.972c6.996 0 12.304-4.792 12.304-11.916 0-6.992-5.308-11.656-12.304-11.656-6.864 0-12.3 4.664-12.3 11.656 0 7.124 5.44 11.916 12.3 11.916Zm-74.772 23.184c-20.204 0-35.616-15.54-35.616-34.452 0-18.776 15.412-34.32 35.616-34.32 20.2 0 35.616 15.544 35.616 34.32 0 18.912-15.412 34.452-35.616 34.452Zm0-21.888c7.38 0 12.304-5.7 12.304-12.432 0-6.864-4.92-12.564-12.304-12.564s-12.304 5.7-12.304 12.56c0 6.736 4.92 12.436 12.304 12.436ZM0 92.34h23.312v94.544H0V92.34ZM282.936 128a8 8 0 1 1-16 0 8 8 0 0 1 16 0Z"/><path fill="#FFD43E" fill-rule="evenodd" d="M219.16 38.66a132.004 132.004 0 0 1 38.464 86.1 47.468 47.468 0 0 0-26.244-15.6 108.005 108.005 0 0 0-90.184-84.06A108 108 0 0 0 30.98 80.34H4.344A132 132 0 0 1 219.16 38.66Z" clip-rule="evenodd"/><path fill="#EE8E1D" fill-rule="evenodd" d="M202.188 55.632a108 108 0 0 1 29.192 53.528 50.151 50.151 0 0 0-10.488-1.104c-4.88 0-9.576.696-13.988 1.996a83.993 83.993 0 0 0-83.365-62.044 83.997 83.997 0 0 0-79.875 66.476 47.17 47.17 0 0 0-8.352 6.116V80.34h-4.336a108 108 0 0 1 171.212-24.708Z" clip-rule="evenodd"/><path fill="#971C1C" d="M185.224 123.552a59.998 59.998 0 0 0-88.896-43.808 59.999 59.999 0 0 0-25.556 28.384c14.24.768 26.68 7.492 34.832 17.644 8.688-10.76 22.252-17.584 37.596-17.584 16.44 0 30.568 7.208 39.068 18.952a46.911 46.911 0 0 1 2.956-3.588Z"/><path fill="#D62727" fill-rule="evenodd" d="M206.9 110.052a47.398 47.398 0 0 0-21.68 13.5 60.004 60.004 0 0 0-51.388-51.013 60 60 0 0 0-63.06 35.589 49.934 49.934 0 0 0-2.736-.072c-8.948 0-17.268 2.344-24.372 6.428a84 84 0 0 1 163.24-4.432h-.004Z" clip-rule="evenodd"/></g><defs><clipPath id="a"><path fill="#fff" d="M0 0h284v220H0z"/></clipPath></defs></svg>