<svg xmlns="http://www.w3.org/2000/svg" width="808" height="160" fill="none"><path fill="#007DFC" fill-rule="evenodd" d="M102.223 46.741A40.002 40.002 0 0 0 80 40V0a80.002 80.002 0 0 1 78.463 95.607 79.993 79.993 0 0 1-21.895 40.961 79.993 79.993 0 0 1-87.183 17.342A79.998 79.998 0 0 1 0 80h40a40.002 40.002 0 0 0 47.804 39.231 39.997 39.997 0 0 0 31.427-31.427 39.995 39.995 0 0 0-17.008-41.062Z" clip-rule="evenodd"/><path fill="#007DFC" fill-rule="evenodd" d="M40 0A40 40 0 0 1 0 40v40A80 80 0 0 0 80 0H40Z" clip-rule="evenodd"/><path fill="#007DFC" d="M502.476 57.81h-19.408v61.649h19.408V57.81Zm-17.248-11.544c2.028 2.03 4.564 3.045 7.608 3.045 3.044 0 5.54-1.015 7.484-3.045 1.948-2.114 2.92-4.65 2.92-7.61 0-3.045-.972-5.582-2.92-7.612-1.944-2.03-4.44-3.044-7.484-3.044-3.044 0-5.58 1.015-7.608 3.044-1.948 2.03-2.92 4.567-2.92 7.611 0 2.96.972 5.497 2.92 7.611Zm-280.603 73.193V29.903h19.915v72.051h39.705v17.505h-59.62Z"/><path fill="#007DFC" fill-rule="evenodd" d="M300.11 120.854c-6.343 0-12.093-1.395-17.252-4.186-5.074-2.875-9.091-6.765-12.051-11.67-2.959-4.905-4.439-10.402-4.439-16.49 0-6.09 1.48-11.544 4.439-16.364 2.96-4.82 6.977-8.626 12.051-11.416 5.074-2.876 10.825-4.314 17.252-4.314s12.177 1.396 17.251 4.186c5.074 2.791 9.091 6.64 12.051 11.544 2.96 4.82 4.44 10.275 4.44 16.364 0 6.088-1.48 11.585-4.44 16.49-2.96 4.905-6.977 8.795-12.051 11.67-5.074 2.791-10.824 4.186-17.251 4.186Zm0-17.632c2.79 0 5.243-.592 7.357-1.776a12.427 12.427 0 0 0 4.82-5.2c1.184-2.284 1.776-4.863 1.776-7.738 0-2.876-.592-5.37-1.776-7.484-1.184-2.2-2.833-3.89-4.947-5.074-2.03-1.27-4.44-1.903-7.23-1.903-2.706 0-5.116.634-7.231 1.903-2.114 1.184-3.763 2.875-4.947 5.074-1.184 2.198-1.776 4.735-1.776 7.61 0 2.791.592 5.328 1.776 7.612 1.184 2.198 2.833 3.932 4.947 5.2 2.115 1.184 4.525 1.776 7.231 1.776Zm49.113 40.339c5.158 2.367 11.12 3.551 17.886 3.551 6.596 0 12.473-1.31 17.632-3.932 5.159-2.622 9.217-6.258 12.177-10.909 2.96-4.651 4.442-10.148 4.442-16.491V57.81h-19.03v4.142c-1.415-1.191-3.022-2.191-4.82-3-3.298-1.607-7.061-2.41-11.289-2.41-5.666 0-10.698 1.352-15.095 4.058-4.398 2.622-7.865 6.259-10.402 10.91-2.538 4.566-3.806 9.725-3.806 15.476 0 5.666 1.268 10.824 3.806 15.475 2.537 4.651 6.004 8.33 10.402 11.036 4.397 2.706 9.429 4.059 15.095 4.059 4.143 0 7.907-.803 11.289-2.41a22.546 22.546 0 0 0 4.44-2.752v3.894c0 4.313-1.395 7.653-4.186 10.021-2.706 2.368-6.469 3.552-11.29 3.552-3.89 0-7.23-.677-10.021-2.03-2.706-1.353-5.159-3.34-7.357-5.962l-11.924 11.924c2.96 4.229 6.977 7.485 12.051 9.768Zm27.653-45.032c-1.945 1.184-4.27 1.776-6.977 1.776-2.706 0-5.074-.592-7.103-1.776-1.946-1.184-3.468-2.79-4.567-4.82a14.374 14.374 0 0 1-1.649-6.723c0-2.538.55-4.82 1.649-6.85 1.099-2.03 2.664-3.637 4.693-4.82 2.03-1.185 4.356-1.777 6.977-1.777 2.707 0 5.032.592 6.977 1.776 2.03 1.184 3.552 2.791 4.567 4.82 1.099 2.03 1.649 4.313 1.649 6.85s-.55 4.82-1.649 6.85c-1.015 1.946-2.537 3.51-4.567 4.694Zm65.328 22.325c-6.344 0-12.096-1.395-17.252-4.186-5.076-2.875-9.092-6.765-12.052-11.67-2.96-4.905-4.44-10.402-4.44-16.49 0-6.09 1.48-11.544 4.44-16.364 2.96-4.82 6.976-8.626 12.052-11.416 5.072-2.876 10.824-4.314 17.252-4.314 6.424 0 12.176 1.396 17.248 4.186 5.076 2.791 9.092 6.64 12.052 11.544 2.96 4.82 4.44 10.275 4.44 16.364 0 6.088-1.48 11.585-4.44 16.49-2.96 4.905-6.976 8.795-12.052 11.67-5.072 2.791-10.824 4.186-17.248 4.186Zm0-17.632c2.788 0 5.24-.592 7.356-1.776a12.446 12.446 0 0 0 4.82-5.2c1.184-2.284 1.776-4.863 1.776-7.738 0-2.876-.592-5.37-1.776-7.484-1.184-2.2-2.832-3.89-4.948-5.074-2.028-1.27-4.44-1.903-7.228-1.903-2.708 0-5.12.634-7.232 1.903-2.116 1.184-3.764 2.875-4.948 5.074-1.184 2.198-1.776 4.735-1.776 7.61 0 2.791.592 5.328 1.776 7.612 1.184 2.198 2.832 3.932 4.948 5.2 2.112 1.184 4.524 1.776 7.232 1.776Zm106.92 17.506c-4.14 0-7.948-.804-11.416-2.41a24.298 24.298 0 0 1-4.944-3.029v30.175h-19.156V57.81h19.408v4.255a23.997 23.997 0 0 1 4.692-2.986c3.468-1.692 7.276-2.538 11.416-2.538 5.836 0 10.996 1.396 15.476 4.187 4.568 2.79 8.12 6.596 10.656 11.416 2.624 4.82 3.932 10.317 3.932 16.49 0 6.174-1.308 11.671-3.932 16.491-2.536 4.821-6.088 8.626-10.656 11.417-4.48 2.79-9.64 4.186-15.476 4.186Zm-3.548-17.506c2.788 0 5.2-.634 7.228-1.902 2.116-1.269 3.764-3.003 4.948-5.201 1.184-2.199 1.776-4.694 1.776-7.484 0-2.876-.592-5.413-1.776-7.611-1.184-2.2-2.832-3.89-4.948-5.074-2.028-1.27-4.396-1.903-7.104-1.903-2.704 0-5.116.634-7.228 1.903-2.032 1.184-3.636 2.875-4.82 5.074-1.184 2.198-1.776 4.735-1.776 7.61 0 2.791.548 5.286 1.648 7.485 1.184 2.198 2.832 3.932 4.948 5.201 2.112 1.268 4.48 1.902 7.104 1.902Z" clip-rule="evenodd"/><path fill="#007DFC" d="M598.184 119.586a42.384 42.384 0 0 0 10.78 1.395c7.696 0 13.784-1.775 18.268-5.327 4.564-3.552 6.848-8.33 6.848-14.334 0-3.89-.716-7.02-2.156-9.387-1.436-2.453-3.296-4.398-5.58-5.836a33.321 33.321 0 0 0-7.232-3.425 111.59 111.59 0 0 0-7.228-2.156c-2.284-.592-4.144-1.269-5.584-2.03-1.436-.76-2.156-1.776-2.156-3.044 0-1.184.552-2.072 1.648-2.664 1.1-.677 2.748-1.015 4.948-1.015 2.284 0 4.608.465 6.976 1.396 2.452.93 4.652 2.537 6.596 4.82l11.036-11.163c-2.788-3.552-6.424-6.216-10.908-7.991-4.396-1.86-9.216-2.791-14.46-2.791-4.988 0-9.344.846-13.064 2.537-3.724 1.691-6.6 4.017-8.628 6.977-2.028 2.875-3.044 6.3-3.044 10.275 0 3.72.72 6.807 2.156 9.26 1.436 2.367 3.3 4.228 5.58 5.58a32.41 32.41 0 0 0 7.232 3.172c2.536.761 4.948 1.48 7.232 2.157 2.28.592 4.144 1.31 5.58 2.156 1.524.761 2.284 1.903 2.284 3.425 0 1.184-.636 2.114-1.904 2.791-1.184.676-2.916 1.015-5.2 1.015-3.3 0-6.344-.592-9.132-1.776-2.792-1.269-5.204-3.002-7.232-5.201l-11.036 11.163c2.116 2.283 4.652 4.313 7.612 6.089a42.921 42.921 0 0 0 9.768 3.932Zm71.288 1.268c-5.664 0-10.696-1.141-15.092-3.424-4.316-2.368-7.696-5.582-10.148-9.641-2.456-4.144-3.68-8.88-3.68-14.207V57.81h19.408v35.518c0 2.114.336 3.932 1.016 5.454.76 1.523 1.86 2.707 3.296 3.552 1.44.846 3.172 1.269 5.2 1.269 2.876 0 5.16-.888 6.852-2.664 1.692-1.86 2.536-4.397 2.536-7.61V57.81h19.408v35.645c0 5.412-1.224 10.19-3.68 14.334-2.452 4.059-5.832 7.273-10.148 9.641-4.312 2.283-9.3 3.424-14.968 3.424Zm57.852-63.044h-19.408v61.649h19.408V83.434c0-2.114.424-3.89 1.268-5.328a9.248 9.248 0 0 1 3.68-3.298c1.524-.846 3.256-1.269 5.2-1.269 2.792 0 5.116.888 6.976 2.664 1.948 1.691 2.92 4.102 2.92 7.23v36.026h19.408V83.434c0-2.114.424-3.89 1.268-5.328a9.222 9.222 0 0 1 3.68-3.298c1.52-.846 3.256-1.269 5.2-1.269 2.792 0 5.116.888 6.976 2.664 1.944 1.691 2.916 4.102 2.916 7.23v36.026h19.412V81.277c0-5.158-1.1-9.556-3.3-13.192-2.116-3.721-5.032-6.554-8.752-8.499-3.636-2.03-7.824-3.045-12.56-3.045-4.82 0-9.176 1.058-13.064 3.172a23.698 23.698 0 0 0-6.628 5.215 21.569 21.569 0 0 0-6.44-5.47c-3.38-1.944-7.228-2.917-11.54-2.917-4.568 0-8.668.973-12.304 2.918a21.254 21.254 0 0 0-4.316 2.907V57.81Z"/></svg>