<svg xmlns="http://www.w3.org/2000/svg" width="748" height="160" fill="none"><g clip-path="url(#a)"><path fill="#3A724F" fill-rule="evenodd" d="M79.48 18.268 90.028 0l29.904 17.268-10.544 18.264c-1.852 3.204.92 7.1 4.552 6.4l20.208-3.9 6.54 33.908-20.208 3.896c-32.688 6.304-57.644-28.736-41-57.568Z" clip-rule="evenodd"/><path fill="#DC8E43" fill-rule="evenodd" d="M61.208 141.732 50.66 160l-29.908-17.264L31.3 124.468c1.852-3.204-.92-7.1-4.556-6.4L6.54 121.964 0 88.06l20.208-3.896c32.688-6.304 57.64 28.736 41 57.568Z" clip-rule="evenodd"/><path fill="#14424C" fill-rule="evenodd" d="M62.12 18.268 51.576 0 21.668 17.268l10.548 18.264c1.848 3.204-.92 7.1-4.556 6.4l-20.208-3.9L.92 71.94l20.204 3.896c32.692 6.304 57.648-28.736 41-57.568h-.004Z" clip-rule="evenodd"/><path fill="#C85D1B" fill-rule="evenodd" d="M78.6 141.732 89.14 160l29.908-17.264-10.548-18.268c-1.848-3.204.92-7.1 4.556-6.4l20.204 3.896 6.54-33.904-20.208-3.896c-32.688-6.304-57.64 28.736-41 57.568h.008Z" clip-rule="evenodd"/><path fill="#14424C" d="M652.456 120.612v-34c0-4.712 1.084-8.94 3.252-12.68 2.244-3.816 5.424-6.808 9.54-8.98 4.116-2.168 9.016-3.252 14.7-3.252a28.921 28.921 0 0 1 7.856 1.008c2.396.6 4.564 1.46 6.508 2.58 2.02 1.048 3.74 2.32 5.164 3.816h.224a22 22 0 0 1 5.16-3.816 27.085 27.085 0 0 1 6.624-2.58 30.161 30.161 0 0 1 7.968-1.008c5.684 0 10.584 1.08 14.7 3.252 4.112 2.172 7.292 5.16 9.536 8.98 2.248 3.74 3.368 7.964 3.368 12.68v34h-17.508v-33.44c0-1.868-.484-3.552-1.456-5.048a10.654 10.654 0 0 0-3.704-3.816 10.033 10.033 0 0 0-5.388-1.46c-2.02 0-3.852.488-5.496 1.46a10.62 10.62 0 0 0-3.704 3.816 9.604 9.604 0 0 0-1.348 5.048v33.44H691.06v-33.44c0-1.868-.488-3.552-1.46-5.048a10.344 10.344 0 0 0-3.816-3.816 10.033 10.033 0 0 0-5.388-1.46c-2.02 0-3.852.488-5.496 1.46a10.62 10.62 0 0 0-3.704 3.816 9.634 9.634 0 0 0-1.348 5.048v33.44h-17.392Zm-38.044 1.348c-5.908 0-11.036-1.12-15.372-3.368-4.264-2.32-7.556-5.424-9.876-9.312-2.32-3.964-3.48-8.344-3.48-13.132V63.044h17.396V95.7c0 2.02.484 3.892 1.456 5.612a11.963 11.963 0 0 0 3.928 4.04c1.72.972 3.668 1.46 5.836 1.46 2.096 0 3.964-.488 5.612-1.46 1.72-1.048 3.068-2.396 4.04-4.04.972-1.72 1.46-3.592 1.46-5.612V63.044h17.392v33.104c0 4.788-1.124 9.168-3.368 13.132-2.244 3.888-5.496 6.996-9.76 9.312-4.192 2.244-9.28 3.368-15.264 3.368Zm-84.756-1.348v-13.8h27.72c.748 0 1.42-.152 2.02-.452a4.52 4.52 0 0 0 1.456-1.456 3.726 3.726 0 0 0 0-3.928 3.603 3.603 0 0 0-1.456-1.348 3.736 3.736 0 0 0-2.02-.56h-10.1c-3.744 0-7.148-.6-10.212-1.796a16.205 16.205 0 0 1-7.184-5.836c-1.72-2.692-2.58-6.172-2.58-10.436 0-3.292.784-6.284 2.356-8.976a19.038 19.038 0 0 1 6.62-6.512 18.271 18.271 0 0 1 9.316-2.468h27.716V76.96h-25.024a3.879 3.879 0 0 0-2.692 1.012 3.364 3.364 0 0 0-1.012 2.468c0 1.048.34 1.944 1.012 2.692a3.879 3.879 0 0 0 2.692 1.012h9.876c4.188 0 7.78.636 10.772 1.904 3.068 1.2 5.424 3.144 7.072 5.84 1.72 2.692 2.58 6.168 2.58 10.432 0 3.368-.86 6.436-2.58 9.2a18.457 18.457 0 0 1-6.736 6.624c-2.768 1.648-5.908 2.468-9.424 2.468h-30.188ZM491.76 61.7c4.864 0 9.164.784 12.904 2.356a25.64 25.64 0 0 1 9.652 6.508 27.983 27.983 0 0 1 6.172 9.876c1.42 3.74 2.132 7.892 2.132 12.456 0 5.684-1.196 10.736-3.592 15.148a25.883 25.883 0 0 1-9.648 10.212c-4.116 2.468-8.904 3.704-14.364 3.704-2.32 0-4.528-.3-6.624-.896a21.247 21.247 0 0 1-5.608-2.584 15.618 15.618 0 0 1-4.152-4.152h-.34v30.64H460.9V92.892c0-6.36 1.272-11.86 3.816-16.496a26.666 26.666 0 0 1 10.772-10.776c4.64-2.616 10.064-3.924 16.272-3.924v.004Zm0 15.036c-2.692 0-5.048.672-7.068 2.02-1.948 1.272-3.444 3.068-4.492 5.388-1.044 2.24-1.568 4.788-1.568 7.628 0 2.844.524 5.388 1.568 7.632 1.048 2.244 2.544 4.04 4.492 5.388 2.02 1.272 4.376 1.908 7.068 1.908 2.692 0 5.012-.64 6.956-1.908a13.195 13.195 0 0 0 4.492-5.388c1.12-2.244 1.68-4.788 1.68-7.632 0-2.84-.56-5.384-1.68-7.628-1.048-2.32-2.544-4.12-4.492-5.388-1.944-1.348-4.264-2.02-6.956-2.02Zm-57.292 43.876V63.044h17.508v57.568h-17.508Zm8.752-64.076c-2.768 0-5.16-1.008-7.18-3.028-2.02-2.02-3.032-4.416-3.032-7.184s1.012-5.16 3.032-7.18c2.02-2.096 4.412-3.144 7.18-3.144s5.164 1.048 7.184 3.144c2.02 2.02 3.028 4.412 3.028 7.18s-1.008 5.16-3.028 7.184c-2.02 2.02-4.416 3.028-7.184 3.028Zm-46.8 65.424c-5.908 0-11.22-1.308-15.936-3.928a29.85 29.85 0 0 1-11.22-10.772c-2.692-4.564-4.04-9.688-4.04-15.376 0-5.76 1.348-10.884 4.04-15.372a29.848 29.848 0 0 1 11.22-10.772c4.716-2.696 10.028-4.04 15.936-4.04 5.912 0 11.184 1.344 15.824 4.04a29.002 29.002 0 0 1 11.108 10.772c2.768 4.488 4.152 9.612 4.152 15.372 0 5.688-1.384 10.812-4.152 15.376a29.002 29.002 0 0 1-11.108 10.772c-4.712 2.62-9.988 3.928-15.824 3.928Zm0-15.148c2.768 0 5.164-.676 7.184-2.02a13.7 13.7 0 0 0 4.712-5.388C409.44 97.16 410 94.616 410 91.772c0-2.768-.56-5.272-1.684-7.52a13.695 13.695 0 0 0-4.712-5.384c-2.02-1.348-4.416-2.02-7.184-2.02s-5.2.672-7.292 2.02a13.707 13.707 0 0 0-4.716 5.388 16.568 16.568 0 0 0-1.68 7.52c0 2.84.56 5.384 1.68 7.628a13.718 13.718 0 0 0 4.716 5.388c2.092 1.344 4.524 2.02 7.292 2.02Zm-87.724 36.584v-14.928h28.724c1.124 0 2.06-.372 2.808-1.12a3.324 3.324 0 0 0 1.12-2.584v-12.68h-.336a26.383 26.383 0 0 1-4.824 4.376c-1.648 1.2-3.52 2.096-5.612 2.696a24.097 24.097 0 0 1-6.844.896c-5.088 0-9.652-1.2-13.692-3.592-3.964-2.468-7.108-5.872-9.428-10.212-2.24-4.336-3.364-9.276-3.364-14.812 0-5.46 1.16-10.436 3.48-14.924 2.392-4.488 5.872-8.08 10.436-10.772 4.56-2.696 10.136-4.04 16.72-4.04 6.284 0 11.708 1.308 16.272 3.928a26.497 26.497 0 0 1 10.772 10.88c2.544 4.64 3.816 10.104 3.816 16.388v33.664c0 5.16-1.532 9.24-4.6 12.232-2.992 3.068-7.144 4.6-12.456 4.6l-32.992.004Zm19.3-37.932c2.692 0 5.012-.6 6.96-1.796a12.723 12.723 0 0 0 4.484-5.048 15.342 15.342 0 0 0 1.572-6.96c0-2.692-.52-5.16-1.568-7.404-1.048-2.244-2.544-4.004-4.492-5.276-1.944-1.348-4.264-2.02-6.96-2.02-2.616 0-4.936.636-6.956 1.908-1.944 1.272-3.44 2.992-4.488 5.16-1.044 2.172-1.568 4.6-1.568 7.296 0 2.62.52 5.012 1.568 7.184a12.73 12.73 0 0 0 4.492 5.048c2.016 1.272 4.336 1.908 6.956 1.908Zm-66.104 16.496c-5.908 0-11.22-1.308-15.932-3.928a29.838 29.838 0 0 1-11.224-10.772c-2.692-4.564-4.04-9.688-4.04-15.376 0-5.76 1.348-10.884 4.04-15.372A29.84 29.84 0 0 1 245.96 65.74c4.712-2.696 10.024-4.04 15.932-4.04 5.912 0 11.184 1.344 15.824 4.04a29.005 29.005 0 0 1 11.108 10.772c2.768 4.488 4.152 9.612 4.152 15.372 0 5.688-1.384 10.812-4.152 15.376a29.01 29.01 0 0 1-11.108 10.772c-4.712 2.62-9.988 3.928-15.824 3.928Zm0-15.148c2.768 0 5.16-.676 7.184-2.02a13.715 13.715 0 0 0 4.712-5.388c1.12-2.244 1.68-4.788 1.68-7.632 0-2.768-.56-5.272-1.68-7.52a13.721 13.721 0 0 0-4.712-5.384c-2.02-1.348-4.416-2.02-7.184-2.02s-5.2.672-7.292 2.02a13.707 13.707 0 0 0-4.716 5.388 16.581 16.581 0 0 0-1.68 7.52c0 2.84.56 5.384 1.68 7.628a13.718 13.718 0 0 0 4.716 5.388c2.092 1.344 4.524 2.02 7.292 2.02Zm-55.704 13.8c-4.864 0-9.128-1.08-12.792-3.252a23.051 23.051 0 0 1-8.528-8.64c-2.02-3.592-3.032-7.56-3.032-11.896V42.06h18.852v56.108c0 1.8.64 3.368 1.908 4.716 1.272 1.344 2.84 2.02 4.712 2.02h20.76v15.708h-21.88Z"/></g><defs><clipPath id="a"><path fill="#fff" d="M0 0h748v160H0z"/></clipPath></defs></svg>